<svg height="512pt" viewBox="-11 0 512 512" width="512pt" xmlns="http://www.w3.org/2000/svg"><path d="m458.667969 512h-426.667969c-17.644531 0-32-14.355469-32-32v-106.667969c0-5.886719 4.777344-10.664062 10.667969-10.664062 5.886719 0 10.664062 4.777343 10.664062 10.664062v106.667969c0 5.867188 4.800781 10.667969 10.667969 10.667969h426.667969c5.867187 0 10.664062-4.800781 10.664062-10.667969v-106.667969c0-5.886719 4.78125-10.664062 10.667969-10.664062s10.667969 4.777343 10.667969 10.664062v106.667969c0 17.644531-14.359375 32-32 32zm0 0"/><path d="m245.332031 426.667969c-5.886719 0-10.664062-4.78125-10.664062-10.667969v-405.332031c0-5.890625 4.777343-10.667969 10.664062-10.667969 5.890625 0 10.667969 4.777344 10.667969 10.667969v405.332031c0 5.886719-4.777344 10.667969-10.667969 10.667969zm0 0"/><path d="m373.332031 149.332031c-2.730469 0-5.460937-1.042969-7.550781-3.113281l-120.449219-120.46875-120.445312 120.46875c-4.160157 4.160156-10.925781 4.160156-15.085938 0-4.15625-4.160156-4.15625-10.921875 0-15.082031l128-128c4.160157-4.160157 10.925781-4.160157 15.085938 0l128 128c4.160156 4.160156 4.160156 10.921875 0 15.082031-2.09375 2.070312-4.824219 3.113281-7.554688 3.113281zm0 0"/></svg>